<svg width="48" height="24" viewBox="0 0 48 24" fill="none" xmlns="http://www.w3.org/2000/svg">
    <line x1="0" y1="12" x2="36" y2="12" stroke="#F0F0F0" stroke-width="2"/>
    <path d="M34 8L40 12L34 16" stroke="#F0F0F0" stroke-width="2" stroke-linecap="round" stroke-linejoin="round"/>
    <line x1="0" y1="12" x2="6" y2="6" stroke="#F0F0F0" stroke-width="1.5"/>
    <line x1="0" y1="12" x2="6" y2="18" stroke="#F0F0F0" stroke-width="1.5"/>
    <line x1="4" y1="12" x2="10" y2="6" stroke="#F0F0F0" stroke-width="1.5"/>
    <line x1="4" y1="12" x2="10" y2="18" stroke="#F0F0F0" stroke-width="1.5"/>
    <g transform="translate(38, 12) scale(1.0)">
        <path d="M0-10C5-15,10-5,10,0c0,5-5,15-10,10C-5,15-10,5-10,0C-10-5-5-15,0-10z" fill="#F5317F"/>
        <path d="M0-6C3-9,6-3,6,0c0,3-3,9-6,6C-3,9-6,3-6,0C-6-3-3-9,0-6z" fill="#7F33F5"/>
        <path d="M0-3C1.5-4.5,3-1.5,3,0c0,1.5-1.5,4.5-3,3C-1.5,4.5-3,1.5-3,0C-3-1.5-1.5-4.5,0-3z" fill="#64B5F6"/>
    </g>
</svg>